<?xml version="1.0" standalone="no"?>
<!DOCTYPE svg PUBLIC "-//W3C//DTD SVG 20010904//EN"
 "http://www.w3.org/TR/2001/REC-SVG-20010904/DTD/svg10.dtd">
<svg version="1.0" xmlns="http://www.w3.org/2000/svg"
 width="30.000000pt" height="30.000000pt" viewBox="0 0 512.000000 512.000000"
 preserveAspectRatio="xMidYMid meet">

<g transform="translate(0.000000,512.000000) scale(0.100000,-0.100000)"
fill="#000000" stroke="none">
<path d="M2488 5099 c-69 -36 -78 -70 -78 -289 0 -171 2 -195 20 -230 23 -45
80 -80 130 -80 50 0 107 35 130 80 18 35 20 59 20 230 0 171 -2 195 -20 230
-37 73 -127 99 -202 59z"/>
<path d="M822 4403 c-40 -8 -99 -76 -107 -121 -11 -67 17 -112 161 -253 101
-99 138 -130 171 -140 113 -33 217 71 184 184 -10 33 -41 70 -140 170 -69 71
-137 135 -151 142 -31 16 -86 25 -118 18z"/>
<path d="M4195 4391 c-23 -10 -95 -74 -166 -147 -99 -101 -130 -138 -140 -171
-33 -113 71 -217 184 -184 33 10 70 41 170 140 71 69 136 140 145 156 66 126
-66 267 -193 206z"/>
<path d="M2372 4140 c-693 -88 -1245 -608 -1378 -1300 -28 -144 -25 -438 5
-580 104 -488 404 -889 830 -1108 465 -240 986 -242 1451 -6 406 206 707 583
821 1026 140 549 -31 1140 -444 1535 -221 211 -498 355 -794 413 -123 24 -374
34 -491 20z m435 -315 c236 -45 472 -168 645 -337 359 -349 487 -862 332
-1327 -129 -387 -421 -684 -806 -819 -72 -26 -225 -62 -259 -62 -5 0 -9 539
-9 1280 0 741 4 1280 9 1280 5 0 45 -7 88 -15z"/>
<path d="M78 2689 c-43 -22 -78 -81 -78 -129 0 -50 35 -107 80 -130 35 -18 59
-20 230 -20 221 0 254 9 290 80 25 50 25 90 0 140 -36 71 -68 80 -292 80 -172
-1 -197 -3 -230 -21z"/>
<path d="M4578 2689 c-43 -22 -78 -81 -78 -129 0 -50 35 -107 80 -130 35 -18
59 -20 230 -20 171 0 195 2 230 20 45 23 80 80 80 130 0 50 -35 107 -80 130
-35 18 -58 20 -232 20 -172 -1 -197 -3 -230 -21z"/>
<path d="M1025 1221 c-54 -25 -279 -254 -300 -305 -24 -56 -12 -109 34 -155
44 -44 87 -56 145 -40 32 9 68 37 170 137 167 165 188 209 145 298 -15 31 -32
48 -63 63 -52 26 -79 26 -131 2z"/>
<path d="M3963 1219 c-30 -15 -48 -33 -62 -63 -43 -89 -22 -133 145 -298 138
-134 174 -156 244 -141 43 8 105 70 113 113 15 70 -7 106 -141 244 -165 167
-210 189 -299 145z"/>
<path d="M2488 599 c-69 -36 -78 -70 -78 -289 0 -221 9 -254 80 -290 50 -25
90 -25 140 0 71 36 80 69 80 290 0 171 -2 195 -20 230 -37 73 -127 99 -202 59z"/>
</g>
</svg>
